<svg xmlns="http://www.w3.org/2000/svg" viewBox="0 0 80 80" width="80" height="80" fill="none">
  <!-- Halo -->
  <circle cx="40" cy="40" r="36" fill="rgba(66,199,255,0.08)" stroke="rgba(66,199,255,0.18)" stroke-width="1"/>
  <!-- Engrenage central -->
  <circle cx="40" cy="40" r="8" stroke="#42c7ff" stroke-width="2" fill="rgba(66,199,255,0.07)"/>
  <circle cx="40" cy="40" r="3" stroke="#42c7ff" stroke-width="1.5" fill="none"/>
  <!-- Dents de l'engrenage -->
  <rect x="37.5" y="27" width="5" height="5" rx="1" fill="#42c7ff" opacity="0.85"/>
  <rect x="37.5" y="48" width="5" height="5" rx="1" fill="#42c7ff" opacity="0.85"/>
  <rect x="27" y="37.5" width="5" height="5" rx="1" fill="#42c7ff" opacity="0.85"/>
  <rect x="48" y="37.5" width="5" height="5" rx="1" fill="#42c7ff" opacity="0.85"/>
  <rect x="30" y="30" width="4" height="4" rx="1" fill="#42c7ff" opacity="0.6" transform="rotate(45 32 32)"/>
  <rect x="46" y="30" width="4" height="4" rx="1" fill="#42c7ff" opacity="0.6" transform="rotate(45 48 32)"/>
  <rect x="30" y="46" width="4" height="4" rx="1" fill="#42c7ff" opacity="0.6" transform="rotate(45 32 48)"/>
  <rect x="46" y="46" width="4" height="4" rx="1" fill="#42c7ff" opacity="0.6" transform="rotate(45 48 48)"/>
  <!-- Coche validation -->
  <path d="M55 22 L58 25 L63 18" stroke="#55e69d" stroke-width="2.2" stroke-linecap="round" stroke-linejoin="round" fill="none"/>
  <!-- Croix erreur -->
  <line x1="17" y1="55" x2="22" y2="60" stroke="#ff6b7a" stroke-width="2" stroke-linecap="round"/>
  <line x1="22" y1="55" x2="17" y2="60" stroke="#ff6b7a" stroke-width="2" stroke-linecap="round"/>
  <!-- Flèche circulaire -->
  <path d="M28 22 A16 16 0 0 1 55 35" stroke="#42c7ff" stroke-width="1.8" stroke-linecap="round" fill="none" stroke-dasharray="3 2"/>
  <polygon points="55,32 58,38 52,37" fill="#42c7ff" opacity="0.8"/>
</svg>
